<svg width="189" height="55" viewBox="0 0 189 55" fill="none" xmlns="http://www.w3.org/2000/svg">
<path d="M54.2532 37.2694C54.2532 38.6936 54.1351 39.9883 53.6623 41.1535C53.1895 42.3186 52.4803 43.225 51.6529 43.8722C50.8256 44.5195 49.8799 45.0375 49.0526 45.4258C48.107 45.8142 47.1613 45.9437 46.334 45.9437H38.2965C37.4691 45.9437 36.5235 45.8142 35.5778 45.4258C34.6322 45.0375 33.8049 44.5195 32.9775 43.8722C32.1502 43.225 31.4409 42.3186 30.9681 41.1535C30.4953 39.9883 30.2589 38.6936 30.2589 37.2694V15.2603C30.2589 13.4478 31.2045 12.671 32.9775 12.671C34.8686 12.671 35.6961 13.5773 35.6961 15.2603V36.8811C35.6961 37.9168 35.9325 38.8231 36.4052 39.5998C36.878 40.5061 37.7055 40.8945 39.1238 40.8945H45.3884C46.6885 40.8945 47.6342 40.5061 47.9887 39.5998C48.5798 38.6936 48.8162 37.7874 48.8162 36.8811V15.2603C48.8162 13.4478 49.7617 12.671 51.5348 12.671C53.4259 12.671 54.2532 13.5773 54.2532 15.2603V37.2694Z" fill="white"/>
<path d="M96.5685 43.6133C96.5685 45.4258 95.623 46.2027 93.8499 46.2027C91.9588 46.2027 91.0131 45.2963 91.0131 43.6133V15.2604C91.0131 13.4478 91.9588 12.671 93.8499 12.671C95.7411 12.671 96.5685 13.5773 96.5685 15.2604V43.6133ZM97.6322 5.80936C97.6322 6.97456 97.2777 8.01029 96.5685 8.78707C95.8593 9.56386 94.9138 9.95226 93.8499 9.95226C92.7861 9.95226 91.8405 9.56386 91.1314 8.78707C90.4222 8.01029 90.0675 6.97456 90.0675 5.80936C90.0675 4.64418 90.4222 3.60845 91.1314 2.83166C91.8405 1.9254 92.7861 1.537 93.8499 1.537C94.9138 1.537 95.8593 1.9254 96.5685 2.70219C97.2777 3.60845 97.6322 4.51471 97.6322 5.80936Z" fill="white"/>
<path d="M109.098 43.6133C109.098 45.4258 108.152 46.2027 106.379 46.2027C104.488 46.2027 103.66 45.2963 103.66 43.6133V21.6042C103.66 20.0506 103.897 18.7559 104.37 17.7202C104.842 16.6845 105.433 15.7782 106.379 15.0014C108.152 13.5773 109.925 12.93 111.698 12.93H119.735C121.39 12.93 123.163 13.5773 125.054 15.0014C126.827 16.4255 127.773 18.6265 127.773 21.6042V43.7428C127.773 45.5552 126.827 46.332 125.054 46.332C123.163 46.332 122.336 45.4258 122.336 43.7428V22.1219C122.336 21.2157 122.1 20.3095 121.508 19.4032C121.036 18.497 120.208 18.1085 118.908 18.1085H112.644C111.225 18.1085 110.398 18.497 109.925 19.4032C109.452 20.18 109.216 21.0862 109.216 22.1219V43.6133H109.098Z" fill="white"/>
<path d="M142.193 42.0598C141.366 42.0598 140.42 41.9303 139.475 41.5418C138.529 41.1535 137.702 40.7651 136.874 40.1178C135.101 38.8231 134.156 36.6221 134.156 33.6444V21.2157C134.156 19.6622 134.392 18.3675 134.865 17.2023C135.338 16.1665 136.047 15.2603 136.874 14.613C137.702 13.9657 138.647 13.5773 139.475 13.1889C140.42 12.8005 141.248 12.671 142.075 12.671H150.467C151.294 12.671 152.122 12.93 153.067 13.3184C154.013 13.7068 154.841 14.2246 155.55 14.872C156.377 15.5193 156.968 16.4255 157.441 17.5907C157.914 18.7559 158.15 20.0506 158.15 21.4747V44.7785C158.15 46.332 157.914 47.6267 157.441 48.6624C156.968 49.6982 156.377 50.7339 155.55 51.3812C154.841 52.0286 153.895 52.5464 153.067 52.9348C152.24 53.3233 151.294 53.5821 150.467 53.5821H142.075C140.302 53.5821 138.529 53.0643 136.756 51.8991C135.81 51.2518 135.101 50.6044 134.747 49.6982C134.392 48.7919 134.156 47.7562 134.156 46.4615V45.8142C134.156 45.0375 134.392 44.5195 134.865 44.0017C135.338 43.6133 135.929 43.3543 136.874 43.3543C138.766 43.6133 139.711 44.39 139.711 45.8142V46.4615C139.711 46.8499 139.947 47.2384 140.42 47.7562C141.011 48.2741 141.839 48.5329 143.021 48.5329H149.285C150.467 48.5329 151.413 48.1446 151.886 47.3677C152.477 46.591 152.713 45.6847 152.713 44.7785V21.7336C152.713 20.8274 152.477 20.0506 151.886 19.2737C151.413 18.497 150.467 18.1085 149.285 18.1085H143.021C141.839 18.1085 140.893 18.497 140.42 19.2737C139.947 20.0506 139.711 20.8274 139.711 21.7336V33.256C139.711 34.1624 139.947 35.0686 140.42 35.8454C141.011 36.6221 141.839 37.0106 143.021 37.0106H145.227C146.409 37.0106 147 37.9168 147 39.5998C147 40.3766 146.882 41.024 146.528 41.4123C146.291 41.9303 145.818 42.1892 145.227 42.1892H142.193V42.0598Z" fill="white"/>
<path d="M172.57 46.7003C171.507 46.7003 170.562 46.7003 169.615 46.4413C168.67 46.053 167.725 45.6646 166.897 45.0173C165.243 43.8521 164.414 41.7806 164.414 38.8029V36.0841C164.414 34.5305 164.651 33.2358 165.125 32.2001C165.597 31.0349 166.306 30.1287 167.133 29.4814C167.961 28.8341 168.906 28.4457 169.733 28.0572C170.68 27.6689 171.625 27.5394 172.452 27.5394H183.563V22.4903C183.563 21.584 183.327 20.8073 182.736 20.0303C182.262 19.2536 181.317 18.8653 180.134 18.8653H174.225C172.926 18.8653 172.097 19.2536 171.625 19.901C171.152 20.5483 170.916 21.325 170.916 22.2313V22.6197C170.916 24.5617 169.969 25.468 168.079 25.468C166.188 25.468 165.243 24.5617 165.243 22.6197V22.1018C165.243 20.5483 165.479 19.3831 165.952 18.3473C166.424 17.3116 167.133 16.4054 167.961 15.7581C168.788 15.1107 169.733 14.5929 170.68 14.2045C171.625 13.8161 172.57 13.5571 173.398 13.5571H180.963C181.79 13.5571 182.736 13.8161 183.563 14.2045C184.508 14.5929 185.455 15.1107 186.282 15.7581C187.108 16.4054 187.819 17.3116 188.291 18.4768C188.764 19.5126 189 20.8073 189 22.3608V45.0005C189 46.9593 188.055 46.9593 186.282 46.9593C185.927 46.9593 185.573 46.9593 185.218 46.9593C184.863 46.9593 184.626 46.8298 184.39 46.7003C184.154 46.5708 183.918 46.3119 183.799 45.9236C183.681 45.5351 183.563 45.1466 183.563 44.6289V32.5886H173.398C172.689 32.5886 172.097 32.7181 171.743 32.8475C171.388 32.977 171.034 33.3653 170.798 33.7538C170.562 34.4011 170.325 34.919 170.207 35.1778C170.089 35.5663 170.089 35.9547 170.089 36.343V38.544C170.089 39.4502 170.325 40.227 170.798 40.7449C171.388 41.2627 172.215 41.5217 173.516 41.5217H176.081C177.264 41.5217 177.973 42.4279 177.973 44.1111C177.973 44.8878 177.855 45.4056 177.5 45.9236C177.146 46.4413 176.672 46.7003 176.081 46.7003H172.57Z" fill="white"/>
<path d="M5.52878 42.9928C5.52878 44.6511 5.52878 46 2.59971 46C-0.000615147 46 1.0462e-05 44.6406 1.0462e-05 42.9928L0 5.66994C0 3.89531 0.978041 3 2.74254 3C4.62468 3 5.41114 4.02207 5.41114 5.66994L5.29351 13.4154H15.8805C17.5273 13.4154 19.2918 14.0491 21.174 15.4435C24.1972 18.3779 23.9973 22.3343 23.9973 25.2498V37.8874C23.9973 40.8028 23.1737 42.9578 21.5269 43.9718C19.88 45.1125 18.0032 46 15.8857 46H10.5417C9.36532 46 7.85624 44.8591 7.85624 43.2112C7.85624 41.5634 9.24768 40.676 10.5416 40.676H14.9395C16.1157 40.676 17.0569 40.4225 17.5274 39.9155C18.1155 39.4084 18.3508 38.6479 18.3508 37.7606V25.7567C18.3508 24.8694 18.329 20.7159 17.7408 19.8286C17.2703 18.9413 16.1158 18.4856 14.8218 18.4856H5.41114L5.52878 42.9928Z" fill="white"/>
<path d="M66.5288 42.9928C66.5288 44.6511 66.5288 46 63.5997 46C60.9994 46 61 44.6406 61 42.9928L61 5.66994C61 3.89531 61.978 3 63.7425 3C65.6247 3 66.4111 4.02207 66.4111 5.66994L66.2935 13.4154H76.8805C78.5273 13.4154 80.2918 14.0491 82.174 15.4435C85.1972 18.3779 84.9973 22.3343 84.9973 25.2498V37.8874C84.9973 40.8028 84.1737 42.9578 82.5269 43.9718C80.88 45.1125 79.0032 46 76.8857 46H71.5417C70.3653 46 68.8562 44.8591 68.8562 43.2112C68.8562 41.5634 70.2477 40.676 71.5416 40.676H75.9395C77.1157 40.676 78.0569 40.4225 78.5274 39.9155C79.1155 39.4084 79.3508 38.6479 79.3508 37.7606V25.7567C79.3508 24.8694 79.329 20.7159 78.7408 19.8286C78.2703 18.9413 77.1158 18.4856 75.8218 18.4856H66.4111L66.5288 42.9928Z" fill="white"/>
</svg>
